<svg width="278" height="87" viewBox="0 0 278 87" fill="none" xmlns="http://www.w3.org/2000/svg">
<g clip-path="url(#clip0_208_187)">
<g clip-path="url(#clip1_208_187)">
<g clip-path="url(#clip2_208_187)">
<path d="M106.303 17.1689C106.303 15.6363 105.762 14.3939 105.095 14.3939C104.428 14.3939 103.887 15.6363 103.887 17.1689V69.8308C103.887 71.3634 104.428 72.6058 105.095 72.6058C105.762 72.6058 106.303 71.3634 106.303 69.8308V17.1689Z" fill="#F2FEDC"/>
<g clip-path="url(#clip3_208_187)">
<g clip-path="url(#clip4_208_187)">
<g clip-path="url(#clip5_208_187)">
<g clip-path="url(#clip6_208_187)">
<g clip-path="url(#clip7_208_187)">
<path d="M272.824 22.3357H271.93V18.1088H273.598C273.918 18.1088 274.19 18.1654 274.417 18.2785C274.643 18.3925 274.815 18.5529 274.934 18.7598C275.053 18.9667 275.113 19.2097 275.113 19.4887C275.113 19.77 275.053 20.0114 274.932 20.2129C274.81 20.4144 274.635 20.5687 274.406 20.6756C274.177 20.7833 273.9 20.8372 273.575 20.8372H272.459V20.1188H273.431C273.601 20.1188 273.743 20.0955 273.856 20.049C273.969 20.0018 274.053 19.9316 274.109 19.8386C274.164 19.7448 274.192 19.6282 274.192 19.4887C274.192 19.3484 274.164 19.2302 274.109 19.1341C274.053 19.038 273.968 18.9648 273.855 18.9144C273.741 18.8641 273.598 18.8389 273.426 18.8389H272.824V22.3357ZM273.25 20.4117H274.213L275.264 22.3357H274.277L273.25 20.4117Z" fill="#F2FEDC"/>
</g>
<path d="M269.466 20.222C269.466 17.9403 271.316 16.0905 273.597 16.0905C275.879 16.0905 277.729 17.9403 277.729 20.222C277.729 22.5037 275.879 24.3535 273.597 24.3535C271.316 24.3535 269.466 22.5037 269.466 20.222ZM273.597 23.9608C275.662 23.9608 277.335 22.2867 277.335 20.222C277.335 18.1573 275.662 16.484 273.597 16.484C271.533 16.484 269.858 18.1573 269.858 20.222C269.858 22.2867 271.533 23.9608 273.597 23.9608Z" fill="#F2FEDC"/>
<path d="M115.83 42.0947C115.356 42.0947 114.925 41.988 114.535 41.7746C114.142 41.5611 113.945 41.2531 113.945 40.8496V17.3356C113.945 16.8852 114.142 16.5651 114.535 16.3751C114.925 16.1851 115.356 16.0905 115.83 16.0905C116.281 16.0905 116.668 16.1567 116.99 16.2897C117.308 16.4178 117.597 16.6362 117.858 16.9443C118.119 17.2523 118.392 17.6792 118.676 18.2249L126.574 33.6282V17.3C126.574 16.8731 126.771 16.5651 127.164 16.3751C127.553 16.1851 127.984 16.0905 128.459 16.0905C128.933 16.0905 129.367 16.1851 129.761 16.3751C130.15 16.5651 130.344 16.8731 130.344 17.3V40.8496C130.344 41.2531 130.15 41.5611 129.761 41.7746C129.367 41.988 128.933 42.0947 128.459 42.0947C127.984 42.0947 127.557 41.9759 127.178 41.739C126.799 41.5021 126.479 41.1577 126.218 40.7074L117.716 24.5214V40.8496C117.716 41.2531 117.521 41.5611 117.132 41.7746C116.739 41.988 116.305 42.0947 115.83 42.0947ZM142.759 42.3082C141.242 42.3082 139.885 42.0471 138.69 41.5255C137.49 41.004 136.541 40.1617 135.844 38.9998C135.142 37.838 134.791 36.2962 134.791 34.3753V24.0234C134.791 22.1024 135.142 20.5607 135.844 19.3988C136.541 18.237 137.49 17.3946 138.69 16.8731C139.885 16.3516 141.242 16.0905 142.759 16.0905C144.254 16.0905 145.605 16.3516 146.815 16.8731C148.024 17.3946 148.985 18.237 149.696 19.3988C150.408 20.5607 150.763 22.1024 150.763 24.0234V34.3753C150.763 36.2962 150.408 37.838 149.696 38.9998C148.985 40.1617 148.024 41.004 146.815 41.5255C145.605 42.0471 144.254 42.3082 142.759 42.3082ZM142.759 38.9643C144.064 38.9643 145.095 38.5893 145.854 37.8401C146.613 37.0952 146.993 35.9405 146.993 34.3753V24.0234C146.993 22.4582 146.621 21.3006 145.876 20.5514C145.127 19.8065 144.088 19.4344 142.759 19.4344C141.431 19.4344 140.395 19.8065 139.65 20.5514C138.901 21.3006 138.526 22.4582 138.526 24.0234V34.3753C138.526 35.9405 138.901 37.0952 139.65 37.8401C140.395 38.5893 141.431 38.9643 142.759 38.9643ZM169.191 42.2014C168.882 42.2014 168.605 42.0947 168.358 41.8813C168.107 41.6678 167.898 41.4067 167.732 41.0987L162.503 30.9247H158.945V40.8496C158.945 41.2531 158.751 41.5611 158.362 41.7746C157.969 41.988 157.535 42.0947 157.06 42.0947C156.585 42.0947 156.154 41.988 155.765 41.7746C155.372 41.5611 155.175 41.2531 155.175 40.8496V17.3C155.175 16.9678 155.288 16.6832 155.516 16.4462C155.739 16.2093 156.052 16.0905 156.455 16.0905H163.214C164.708 16.0905 166.072 16.3089 167.305 16.7451C168.538 17.1862 169.523 17.9332 170.258 18.9862C170.993 20.0442 171.361 21.4977 171.361 23.3475C171.361 24.7704 171.142 25.9565 170.706 26.9048C170.265 27.8532 169.672 28.6053 168.927 29.1602C168.178 29.7201 167.329 30.1299 166.38 30.391L171.361 39.7469C171.408 39.818 171.444 39.9055 171.467 40.0101C171.491 40.119 171.503 40.2093 171.503 40.2805C171.503 40.5885 171.384 40.8902 171.147 41.184C170.91 41.4829 170.621 41.7269 170.279 41.9169C169.933 42.1068 169.57 42.2014 169.191 42.2014ZM158.945 19.4344V27.9009H163.214C164.543 27.9009 165.605 27.5807 166.402 26.9404C167.193 26.3001 167.59 25.2094 167.59 23.6677C167.59 22.1259 167.193 21.0352 166.402 20.3949C165.605 19.7546 164.543 19.4344 163.214 19.4344H158.945ZM181.179 42.0947C180.704 42.0947 180.273 41.988 179.884 41.7746C179.49 41.5611 179.293 41.2531 179.293 40.8496V19.5411H173.78C173.4 19.5411 173.104 19.3633 172.89 19.0075C172.677 18.6518 172.57 18.2484 172.57 17.798C172.57 17.3712 172.665 16.9799 172.855 16.6241C173.045 16.2684 173.353 16.0905 173.78 16.0905H188.543C188.993 16.0905 189.313 16.2684 189.503 16.6241C189.693 16.9799 189.788 17.3591 189.788 17.7625C189.788 18.237 189.688 18.6518 189.489 19.0075C189.285 19.3633 188.969 19.5411 188.543 19.5411H183.064V40.8496C183.064 41.2531 182.87 41.5611 182.481 41.7746C182.087 41.988 181.653 42.0947 181.179 42.0947ZM194.412 42.0947C193.938 42.0947 193.506 41.988 193.117 41.7746C192.724 41.5611 192.527 41.2531 192.527 40.8496V17.3C192.527 16.8731 192.724 16.5651 193.117 16.3751C193.506 16.1851 193.938 16.0905 194.412 16.0905C194.887 16.0905 195.321 16.1851 195.714 16.3751C196.103 16.5651 196.298 16.8731 196.298 17.3V27.1183H205.155V17.3C205.155 16.8731 205.35 16.5651 205.739 16.3751C206.132 16.1851 206.566 16.0905 207.041 16.0905C207.515 16.0905 207.946 16.1851 208.336 16.3751C208.729 16.5651 208.926 16.8731 208.926 17.3V40.8496C208.926 41.2531 208.729 41.5611 208.336 41.7746C207.946 41.988 207.515 42.0947 207.041 42.0947C206.566 42.0947 206.132 41.988 205.739 41.7746C205.35 41.5611 205.155 41.2531 205.155 40.8496V30.1065H196.298V40.8496C196.298 41.2531 196.103 41.5611 195.714 41.7746C195.321 41.988 194.887 42.0947 194.412 42.0947ZM227.958 42.0947H215.294C214.89 42.0947 214.511 41.988 214.155 41.7746C213.8 41.5611 213.622 41.2531 213.622 40.8496V17.3356C213.622 16.9322 213.8 16.6241 214.155 16.4107C214.511 16.1972 214.89 16.0905 215.294 16.0905H227.958C228.408 16.0905 228.728 16.2684 228.918 16.6241C229.108 16.9799 229.203 17.3477 229.203 17.7269C229.203 18.1773 229.096 18.5735 228.883 18.915C228.669 19.2615 228.361 19.4344 227.958 19.4344H217.393V27.5807H222.871C223.274 27.5807 223.582 27.7351 223.796 28.0432C224.009 28.3513 224.116 28.707 224.116 29.1104C224.116 29.4427 224.021 29.7671 223.831 30.0851C223.641 30.4074 223.321 30.5689 222.871 30.5689H217.393V38.7508H227.958C228.361 38.7508 228.669 38.9166 228.883 39.2488C229.096 39.5811 229.203 39.9838 229.203 40.4583C229.203 40.8376 229.108 41.2054 228.918 41.5611C228.728 41.9169 228.408 42.0947 227.958 42.0947ZM246.207 42.2014C245.899 42.2014 245.619 42.0947 245.368 41.8813C245.121 41.6678 244.914 41.4067 244.749 41.0987L239.519 30.9247H235.962V40.8496C235.962 41.2531 235.765 41.5611 235.371 41.7746C234.982 41.988 234.551 42.0947 234.077 42.0947C233.602 42.0947 233.168 41.988 232.775 41.7746C232.385 41.5611 232.191 41.2531 232.191 40.8496V17.3C232.191 16.9678 232.303 16.6832 232.526 16.4462C232.753 16.2093 233.068 16.0905 233.472 16.0905H240.231C241.725 16.0905 243.089 16.3089 244.322 16.7451C245.555 17.1862 246.539 17.9332 247.274 18.9862C248.009 20.0442 248.377 21.4977 248.377 23.3475C248.377 24.7704 248.157 25.9565 247.715 26.9048C247.279 27.8532 246.686 28.6053 245.937 29.1602C245.192 29.7201 244.345 30.1299 243.397 30.391L248.377 39.7469C248.425 39.818 248.46 39.9055 248.484 40.0101C248.507 40.119 248.519 40.2093 248.519 40.2805C248.519 40.5885 248.401 40.8902 248.164 41.184C247.927 41.4829 247.635 41.7269 247.289 41.9169C246.947 42.1068 246.586 42.2014 246.207 42.2014ZM235.962 19.4344V27.9009H240.231C241.559 27.9009 242.619 27.5807 243.411 26.9404C244.208 26.3001 244.606 25.2094 244.606 23.6677C244.606 22.1259 244.208 21.0352 243.411 20.3949C242.619 19.7546 241.559 19.4344 240.231 19.4344H235.962ZM253.749 42.0947C253.274 42.0947 252.84 41.988 252.447 41.7746C252.058 41.5611 251.863 41.2531 251.863 40.8496V17.3356C251.863 16.8852 252.058 16.5651 252.447 16.3751C252.84 16.1851 253.274 16.0905 253.749 16.0905C254.199 16.0905 254.583 16.1567 254.901 16.2897C255.224 16.4178 255.515 16.6362 255.776 16.9443C256.037 17.2523 256.31 17.6792 256.595 18.2249L264.492 33.6282V17.3C264.492 16.8731 264.686 16.5651 265.075 16.3751C265.469 16.1851 265.903 16.0905 266.377 16.0905C266.852 16.0905 267.286 16.1851 267.679 16.3751C268.068 16.5651 268.263 16.8731 268.263 17.3V40.8496C268.263 41.2531 268.068 41.5611 267.679 41.7746C267.286 41.988 266.852 42.0947 266.377 42.0947C265.903 42.0947 265.476 41.9759 265.097 41.739C264.717 41.5021 264.397 41.1577 264.136 40.7074L255.634 24.5214V40.8496C255.634 41.2531 255.44 41.5611 255.051 41.7746C254.657 41.988 254.223 42.0947 253.749 42.0947Z" fill="#F2FEDC"/>
<path d="M120.49 70.9092C118.949 70.9092 117.586 70.6837 116.4 70.2334C115.213 69.783 114.289 69.2302 113.625 68.5756C112.961 67.9261 112.629 67.3042 112.629 66.7116C112.629 66.427 112.707 66.1303 112.864 65.8222C113.015 65.5142 113.217 65.246 113.468 65.0183C113.715 64.7956 113.981 64.6839 114.265 64.6839C114.597 64.6839 114.913 64.8191 115.211 65.0894C115.505 65.3648 115.866 65.692 116.293 66.0713C116.72 66.4505 117.253 66.7827 117.894 67.0673C118.534 67.3519 119.352 67.4942 120.348 67.4942C121.202 67.4942 121.968 67.3569 122.646 67.0815C123.32 66.8112 123.854 66.3964 124.247 65.8365C124.636 65.2815 124.83 64.5772 124.83 63.7234C124.83 62.822 124.624 62.0749 124.211 61.4823C123.794 60.8896 123.237 60.3916 122.539 59.9882C121.837 59.5848 121.083 59.2177 120.277 58.8854C119.471 58.5532 118.653 58.1974 117.822 57.8182C116.992 57.439 116.234 56.9808 115.546 56.4451C114.858 55.9136 114.308 55.2377 113.895 54.4174C113.477 53.6013 113.269 52.5768 113.269 51.3438C113.269 50.0397 113.513 48.9483 114.002 48.0711C114.486 47.1938 115.131 46.4938 115.937 45.9722C116.743 45.4507 117.632 45.0758 118.605 44.8481C119.578 44.6254 120.538 44.5137 121.487 44.5137C122.079 44.5137 122.739 44.5564 123.464 44.6418C124.185 44.7222 124.889 44.8624 125.577 45.0616C126.265 45.2658 126.835 45.5333 127.285 45.8655C127.735 46.1978 127.961 46.6005 127.961 47.075C127.961 47.3119 127.902 47.5894 127.783 47.9074C127.664 48.2297 127.493 48.5101 127.271 48.747C127.043 48.9839 126.751 49.1027 126.396 49.1027C126.088 49.1027 125.743 48.9889 125.364 48.7612C124.985 48.5385 124.494 48.313 123.891 48.0853C123.284 47.8626 122.483 47.7509 121.487 47.7509C120.633 47.7509 119.869 47.8697 119.196 48.1067C118.518 48.3436 117.988 48.6922 117.609 49.1525C117.23 49.6171 117.04 50.229 117.04 50.9881C117.04 51.7472 117.248 52.3684 117.666 52.8522C118.079 53.3409 118.629 53.7557 119.317 54.0972C120.005 54.4437 120.759 54.771 121.579 55.0791C122.395 55.3871 123.213 55.7478 124.034 56.1605C124.85 56.5781 125.608 57.0833 126.31 57.6759C127.008 58.2686 127.565 59.0206 127.982 59.9313C128.395 60.8469 128.601 61.9803 128.601 63.3321C128.601 65.0396 128.253 66.4555 127.555 67.5796C126.853 68.7087 125.893 69.5454 124.674 70.0911C123.45 70.6368 122.056 70.9092 120.49 70.9092ZM134.008 70.6247C133.534 70.6247 133.103 70.5179 132.713 70.3045C132.32 70.0911 132.123 69.783 132.123 69.3796V45.83C132.123 45.4031 132.32 45.095 132.713 44.905C133.103 44.7151 133.534 44.6205 134.008 44.6205C134.483 44.6205 134.917 44.7151 135.31 44.905C135.7 45.095 135.894 45.4031 135.894 45.83V69.3796C135.894 69.783 135.7 70.0911 135.31 70.3045C134.917 70.5179 134.483 70.6247 134.008 70.6247ZM148.309 70.8381C146.791 70.8381 145.435 70.577 144.239 70.0555C143.039 69.534 142.091 68.6916 141.393 67.5298C140.691 66.3679 140.34 64.8262 140.34 62.9052V52.5533C140.34 50.6324 140.691 49.0906 141.393 47.9288C142.091 46.767 143.039 45.9246 144.239 45.4031C145.435 44.8816 146.756 44.6205 148.202 44.6205C149.815 44.6205 151.226 44.8929 152.435 45.4386C153.645 45.9843 154.593 46.7428 155.281 47.7153C155.969 48.6879 156.313 49.8498 156.313 51.2015C156.313 51.913 156.154 52.3918 155.836 52.6387C155.514 52.8899 155.044 53.0158 154.428 53.0158C153.93 53.0158 153.498 52.9254 153.133 52.7454C152.763 52.5697 152.566 52.2453 152.542 51.7707C152.471 51.0827 152.305 50.4474 152.044 49.864C151.783 49.2856 151.356 48.8231 150.763 48.4766C150.171 48.1351 149.353 47.9644 148.309 47.9644C146.981 47.9644 145.945 48.3365 145.2 49.0814C144.451 49.8305 144.076 50.9881 144.076 52.5533V62.9052C144.076 64.4705 144.451 65.6252 145.2 66.3701C145.945 67.1193 146.981 67.4942 148.309 67.4942C149.613 67.4942 150.645 67.1193 151.404 66.3701C152.163 65.6252 152.542 64.4705 152.542 62.9052V59.9882H148.949C148.57 59.9882 148.273 59.8338 148.06 59.5257C147.846 59.2177 147.74 58.8619 147.74 58.4585C147.74 58.1028 147.846 57.7634 148.06 57.4411C148.273 57.1231 148.57 56.9644 148.949 56.9644H155.068C155.471 56.9644 155.779 57.0875 155.993 57.3344C156.206 57.5856 156.313 57.8894 156.313 58.2451V62.9052C156.313 64.8262 155.957 66.3679 155.246 67.5298C154.534 68.6916 153.574 69.534 152.364 70.0555C151.155 70.577 149.803 70.8381 148.309 70.8381ZM162.218 70.6247C161.744 70.6247 161.312 70.5179 160.923 70.3045C160.53 70.0911 160.333 69.783 160.333 69.3796V45.8655C160.333 45.4152 160.53 45.095 160.923 44.905C161.312 44.7151 161.744 44.6205 162.218 44.6205C162.669 44.6205 163.056 44.6866 163.378 44.8197C163.696 44.9477 163.985 45.1662 164.246 45.4742C164.507 45.7823 164.779 46.2092 165.064 46.7549L172.961 62.1582V45.83C172.961 45.4031 173.158 45.095 173.552 44.905C173.941 44.7151 174.372 44.6205 174.847 44.6205C175.321 44.6205 175.755 44.7151 176.149 44.905C176.538 45.095 176.732 45.4031 176.732 45.83V69.3796C176.732 69.783 176.538 70.0911 176.149 70.3045C175.755 70.5179 175.321 70.6247 174.847 70.6247C174.372 70.6247 173.945 70.5058 173.566 70.2689C173.187 70.032 172.867 69.6877 172.606 69.2373L164.104 53.0514V69.3796C164.104 69.783 163.909 70.0911 163.52 70.3045C163.127 70.5179 162.693 70.6247 162.218 70.6247ZM187.973 70.9092C186.432 70.9092 185.068 70.6837 183.882 70.2334C182.696 69.783 181.771 69.2302 181.108 68.5756C180.444 67.9261 180.112 67.3042 180.112 66.7116C180.112 66.427 180.19 66.1303 180.346 65.8222C180.498 65.5142 180.7 65.246 180.951 65.0183C181.198 64.7956 181.463 64.6839 181.748 64.6839C182.08 64.6839 182.395 64.8191 182.694 65.0894C182.988 65.3648 183.349 65.692 183.776 66.0713C184.203 66.4505 184.736 66.7827 185.376 67.0673C186.017 67.3519 186.835 67.4942 187.831 67.4942C188.685 67.4942 189.451 67.3569 190.129 67.0815C190.803 66.8112 191.336 66.3964 191.73 65.8365C192.119 65.2815 192.313 64.5772 192.313 63.7234C192.313 62.822 192.107 62.0749 191.694 61.4823C191.277 60.8896 190.72 60.3916 190.022 59.9882C189.32 59.5848 188.566 59.2177 187.76 58.8854C186.954 58.5532 186.136 58.1974 185.305 57.8182C184.475 57.439 183.717 56.9808 183.029 56.4451C182.341 55.9136 181.791 55.2377 181.378 54.4174C180.96 53.6013 180.752 52.5768 180.752 51.3438C180.752 50.0397 180.996 48.9483 181.485 48.0711C181.969 47.1938 182.614 46.4938 183.42 45.9722C184.226 45.4507 185.115 45.0758 186.088 44.8481C187.061 44.6254 188.021 44.5137 188.969 44.5137C189.562 44.5137 190.222 44.5564 190.947 44.6418C191.668 44.7222 192.372 44.8624 193.06 45.0616C193.748 45.2658 194.318 45.5333 194.768 45.8655C195.218 46.1978 195.444 46.6005 195.444 47.075C195.444 47.3119 195.385 47.5894 195.266 47.9074C195.147 48.2297 194.976 48.5101 194.754 48.747C194.526 48.9839 194.234 49.1027 193.879 49.1027C193.57 49.1027 193.226 48.9889 192.847 48.7612C192.468 48.5385 191.977 48.313 191.374 48.0853C190.767 47.8626 189.965 47.7509 188.969 47.7509C188.116 47.7509 187.352 47.8697 186.678 48.1067C186 48.3436 185.471 48.6922 185.092 49.1525C184.713 49.6171 184.523 50.229 184.523 50.9881C184.523 51.7472 184.731 52.3684 185.149 52.8522C185.561 53.3409 186.111 53.7557 186.799 54.0972C187.487 54.4437 188.242 54.771 189.062 55.0791C189.878 55.3871 190.696 55.7478 191.516 56.1605C192.333 56.5781 193.091 57.0833 193.793 57.6759C194.49 58.2686 195.047 59.0206 195.465 59.9313C195.878 60.8469 196.084 61.9803 196.084 63.3321C196.084 65.0396 195.735 66.4555 195.038 67.5796C194.336 68.7087 193.376 69.5454 192.157 70.0911C190.933 70.6368 189.539 70.9092 187.973 70.9092Z" fill="#F2FEDC"/>
</g>
</g>
</g>
</g>
<g clip-path="url(#clip8_208_187)">
<g clip-path="url(#clip9_208_187)">
<path d="M81.8149 0.0653017C79.7701 0.262702 77.6683 0.0901323 75.6223 0.272635C74.2777 0.314846 72.9629 0.313604 71.6184 0.354574C70.9604 0.42534 70.3098 0.409201 69.6369 0.437755C66.6536 0.46631 63.6355 0.616533 60.6372 0.602876C58.7737 0.756824 56.9276 0.712129 55.0641 0.767997C53.1583 0.950499 51.2315 0.806484 49.3258 0.974088C47.7292 1.0163 46.1202 1.00264 44.5373 1.01506C42.716 1.16901 40.9096 1.13797 39.0883 1.18018C36.9864 1.36268 34.8734 1.20501 32.7727 1.38627C31.484 1.42848 30.1817 1.42724 28.8918 1.46945C27.9395 1.56753 26.996 1.51042 26.0437 1.55139C23.6203 1.55139 21.2155 1.74507 18.7784 1.71651C16.8317 1.8568 14.8366 1.85308 12.875 1.88163C10.3808 2.09145 7.89657 1.87791 5.40361 2.12994C5.10938 2.39562 4.84617 2.74572 4.49483 2.95554C4.53704 3.19391 4.43523 3.57257 4.70092 3.69796C5.12179 3.89412 5.58736 3.84819 6.02189 3.94627C6.10631 4.5633 6.57932 4.99783 6.93067 5.47333C7.57502 6.41191 8.07286 7.5032 8.04555 8.65284C8.03189 9.22766 8.16101 9.84096 7.83822 10.345C7.58619 10.7932 7.20877 11.1483 7.01261 11.625C6.76059 11.6536 6.40924 11.6051 6.31116 11.913C6.15721 12.1229 6.22301 12.4494 6.51725 12.4916C9.0251 13.234 11.564 13.8957 14.0718 14.6382C14.6876 14.8753 15.3407 14.6382 15.9714 14.6382C18.8157 14.6096 21.6724 14.4879 24.5167 14.4321C47.6311 13.7877 70.7543 13.1632 93.8688 12.5326C94.3455 12.5462 94.6459 12.1378 95.0246 11.913C95.6826 11.5071 95.9855 10.7286 96.1395 10.0148C96.1395 8.92224 96.3766 7.84585 96.2214 6.75332C96.1221 5.98235 96.1953 5.22626 96.1395 4.44163C95.9284 4.0071 95.5783 3.65203 95.3958 3.2026C95.1996 2.74076 94.9923 2.17463 94.4883 1.96481C93.9134 1.61471 93.2194 1.77362 92.5887 1.67554C89.3385 1.17149 86.0969 0.652537 82.8466 0.148483C82.4965 0.0926149 82.165 0.0379885 81.8149 0.0653017ZM7.17773 4.02945C8.99903 4.26782 10.8327 4.46522 12.6689 4.68993C12.9768 4.85754 13.0786 5.2213 13.2462 5.51554C11.6633 5.50188 10.1089 5.18654 8.54091 5.06114C7.89657 5.07356 7.62592 4.37955 7.17773 4.02945ZM8.747 6.25796C10.3995 6.32749 12.0209 6.68256 13.6597 6.79429C13.898 7.35422 14.1799 7.87068 14.3611 8.4455C12.6242 8.2779 10.8824 7.99608 9.15918 7.74405C8.99158 7.26731 8.8724 6.74836 8.747 6.25796ZM9.15918 8.94087C10.8961 9.08116 12.623 9.43375 14.3611 9.60135V11.2526L9.11822 10.2618C9.14677 9.82855 9.17408 9.37539 9.15918 8.94087ZM8.58188 11.3357C10.4876 11.6585 12.3871 12.0446 14.2792 12.4084C14.1252 12.7449 14.0172 13.1037 14.0309 13.4823C12.0842 12.9634 10.0878 12.5015 8.16846 11.913C8.30875 11.7169 8.45525 11.5307 8.58188 11.3357Z" fill="#FFDC00"/>
<path d="M95.9321 12.5735C95.6044 12.6257 95.2977 13.0242 95.0246 13.193C94.3939 13.7815 93.4839 13.5767 92.7129 13.6474C66.6983 14.3613 40.2988 14.7102 14.2841 15.537C10.7558 14.5624 7.5477 13.1136 3.92373 12.0943C3.95849 12.2482 3.10681 12.6964 3.53389 13.1496C3.96097 13.6015 5.66557 14.0571 5.65067 14.2247C5.62211 14.9808 5.9387 15.6972 5.98091 16.4545C6.02312 17.5334 5.81331 18.6234 5.93994 19.7159C5.98215 20.22 6.16093 20.7253 6.10506 21.243C5.10937 21.6092 3.23096 21.8265 3.23096 21.8265L2.79643 22.6447C2.79643 22.6447 9.1927 23.7931 12.0494 24.2984C20.0063 25.6715 27.9383 27.0409 35.91 28.3432C36.9603 28.6089 38.038 28.2625 39.0883 28.1781C57.819 25.8105 76.5695 23.4454 95.3138 21.0779C95.6639 21.0357 96.0948 20.9463 96.2624 20.5825C96.8645 19.336 97.3735 18.0064 97.5424 16.6196C97.5424 15.9194 97.5846 15.2291 97.5424 14.514C97.2481 13.8275 96.7528 13.2166 96.2624 12.6567C96.1432 12.5835 96.0414 12.5574 95.9321 12.5735ZM6.68236 14.5972L10.9755 16.0001L8.5409 15.8772L6.97163 15.7121L6.68236 14.5972ZM35.6617 16.2894L36.8176 18.1057L20.0162 16.8257L35.6617 16.2894ZM7.13676 16.9499C8.63526 16.9635 10.1375 17.141 11.636 17.2391C19.3967 17.8549 27.1574 18.5216 34.9193 19.1374C35.6754 19.2218 36.4327 19.2752 37.19 19.2615C37.3167 19.6253 37.3415 19.9978 37.3551 20.3764C35.1552 20.2647 32.9763 19.9394 30.7913 19.7569C26.4907 19.3087 22.2261 18.8841 17.9118 18.4359C14.3388 18.0995 10.7508 17.6712 7.17773 17.362C7.16531 17.2081 7.15041 17.1038 7.13676 16.9499ZM7.05482 18.4769C17.198 19.5136 27.351 20.5639 37.478 21.6142C37.5625 22.0351 37.6295 22.4597 37.6432 22.8942C27.4442 21.6477 17.2116 20.4534 7.0126 19.1796C7.02626 18.9549 7.05357 18.7016 7.05482 18.4769ZM7.21994 20.4174C8.87239 20.5018 10.4789 20.7861 12.1314 20.9537C20.5923 21.9767 29.0432 23.0134 37.5203 24.0091C37.5054 24.4014 37.4408 24.759 37.272 25.124C36.3756 25.0954 35.4854 24.8918 34.5891 24.7937C25.8054 23.546 17.008 22.3244 8.21066 21.0779C7.87421 21.0493 7.54149 20.9699 7.21994 20.8718C7.20628 20.76 7.21994 20.5304 7.21994 20.4174ZM6.8897 22.1096C7.38009 22.1096 7.85807 22.1356 8.33357 22.2337C17.7902 23.5646 27.2381 24.9216 36.6947 26.2376C36.5271 26.5604 36.3806 26.8919 36.2403 27.2283C26.4485 25.7298 16.6405 24.0525 6.84748 22.5267C6.59546 22.4709 6.86114 22.2499 6.8897 22.1096Z" fill="#FFDC00"/>
<path d="M91.8873 22.1096C90.837 22.0674 89.8276 22.3281 88.791 22.4399C71.8816 24.7789 55.007 27.1179 38.0976 29.4581C37.6767 29.514 37.2384 29.6245 36.8176 29.5823C33.8479 28.9094 30.8583 28.4773 27.8601 27.9311C18.4295 26.5766 10.5559 24.6709 2.14216 23.0594C1.60955 23.1438 1.54251 23.9644 2.01801 24.1333C2.87217 24.497 3.83186 24.5691 4.74313 24.7938C4.86976 25.9844 5.62212 26.9875 5.73385 28.1781C5.80338 28.8647 6.01071 29.514 5.93994 30.2005C5.79965 30.8585 5.55632 31.4954 5.48555 32.182C4.86976 32.6029 3.96967 32.3806 3.33898 32.8425C3.21234 33.1231 3.18131 33.5551 3.5041 33.7103C3.82689 33.8928 4.18569 33.9698 4.5358 34.0815C6.49738 34.6973 8.47759 35.2957 10.4392 35.8978C15.3419 37.2151 20.2322 38.5025 25.135 39.8198C25.3733 39.8905 25.6253 39.9998 25.8786 39.9439C26.8172 39.7478 27.7744 39.6571 28.7266 39.5305C40.9704 38.0457 53.2229 36.5161 65.4667 35.0313C74.1809 33.9524 82.8975 32.9604 91.598 31.8108C92.0599 31.7971 92.3926 31.4594 92.5887 31.0684C92.9525 30.3396 93.5509 29.653 93.6204 28.7976C93.69 27.6492 93.6776 26.5195 93.5795 25.3711C93.4528 24.4884 92.9252 23.6925 92.5887 22.8943C92.4211 22.5864 92.2933 22.1382 91.8873 22.1096ZM5.89897 25.0408C12.5249 26.3022 19.1285 27.6592 25.7545 28.9628C26.4547 29.0323 26.9029 29.6555 27.3237 30.1596C21.033 28.9826 14.7485 27.7597 8.45773 26.5679C7.75752 26.4562 7.06724 26.2525 6.35213 26.1967C6.19818 25.8044 6.03802 25.4331 5.89897 25.0408ZM6.76555 27.4357C13.5181 28.6685 20.2682 30.0143 27.0345 31.2745C27.2306 31.303 27.4168 31.2745 27.6118 31.2745C27.6403 31.8629 27.6527 32.475 27.654 33.0498C25.6365 32.5458 23.6166 32.2317 21.5855 31.8108C17.1309 30.9281 12.6652 30.0379 8.21067 29.1689C7.7898 29.0857 7.39251 29.0062 6.97164 28.8796C6.94309 28.3904 6.82142 27.9261 6.76555 27.4357ZM7.21994 30.1186C9.48943 30.6512 11.7887 31.005 14.0718 31.4805C18.3451 32.321 22.6234 33.1578 26.9103 33.9996C27.1201 34.0691 27.361 33.9735 27.5708 33.9164C27.5422 34.3931 27.4752 34.8984 27.4479 35.3615C21.1435 34.0021 14.8714 32.6066 8.58188 31.2335C8.04927 31.1354 7.54522 31.0001 7.01261 30.9442C7.05482 30.6636 7.07965 30.3843 7.21994 30.1186ZM6.60043 32.0591C7.21622 32.1013 7.82828 32.2627 8.41676 32.3893C14.6653 33.7339 20.9101 35.0896 27.1586 36.4342C27.0605 36.9804 26.8731 37.5404 26.6632 38.0444C24.8842 37.5826 23.1175 37.158 21.3372 36.7234C19.8945 36.3733 18.4171 36.1263 17.0031 35.6508C13.543 34.5856 10.0742 33.4955 6.60043 32.4303V32.0591Z" fill="#FFDC00"/>
<path d="M91.3087 32.8015C90.8506 32.8226 90.3987 32.9356 89.9468 32.9666C69.2905 35.9425 25.8786 40.9334 25.8786 40.9346C25.8786 40.9346 17.6027 38.947 13.2872 37.7551C12.9644 37.6571 12.5609 37.6943 12.3797 38.0034C12.1835 38.6341 12.6677 39.1767 12.7509 39.7788C12.8353 40.6888 12.6838 41.6063 12.5448 42.5027C12.1103 42.7684 11.4771 42.7559 11.1828 43.2041C19.8821 45.5717 28.559 48.0622 37.272 50.3875C37.5376 50.457 37.817 50.4707 38.0976 50.4285C55.7072 46.8567 73.3006 43.3233 90.8966 39.7366C91.6812 39.61 91.9779 38.7707 92.2995 38.1686C92.6781 37.0053 92.5056 35.7675 92.5478 34.5769C92.5192 34.156 92.6496 33.647 92.3417 33.2969C92.1877 33.1007 91.9879 32.9132 91.7631 32.8015C91.6092 32.7804 91.4615 32.7953 91.3087 32.8015ZM13.8248 39.0761C16.319 39.7341 18.7623 40.4542 21.2552 41.0998C18.9013 40.5672 16.5909 40.0358 14.237 39.5305C13.9849 39.5168 13.8658 39.3145 13.8248 39.0761ZM13.8658 40.6044C20.3936 42.047 26.9327 43.5642 33.4742 45.0205C35.2955 45.4264 37.0882 45.923 38.9232 46.2595C38.9083 46.6655 38.8859 47.0652 38.6761 47.4153C30.4946 45.2303 22.3366 43.0787 14.155 40.8924C14.0147 40.8502 13.9216 40.7298 13.8658 40.6044ZM35.7449 40.8924C36.0218 40.8726 36.3297 40.8912 36.6947 40.9346C37.7735 41.1023 38.6463 42.0297 38.7581 43.1222C36.6152 42.6877 31.0793 41.6361 31.0805 41.6361C31.0805 41.6361 34.1458 41.2785 34.8361 41.0166C35.1999 40.9744 35.4681 40.9123 35.7449 40.8924ZM13.7826 42.0073C15.548 42.3996 17.2737 42.9347 19.0255 43.3692C25.3994 45.0639 31.7373 46.7797 38.0976 48.447C37.9709 48.7698 37.7611 49.3173 37.3129 49.1075C29.4542 46.8802 21.5867 44.6617 13.7416 42.4207C13.7416 42.3227 13.7677 42.1054 13.7826 42.0073ZM29.2642 42.1315C29.2642 42.1315 35.4072 43.5145 37.7673 44.1129C38.1311 44.211 38.5035 44.2917 38.8822 44.319C38.8971 44.571 38.9095 44.8094 38.9232 45.0627C34.959 44.2644 31.0123 43.2612 27.0345 42.4207C28.3517 42.1687 29.2642 42.1315 29.263 42.1315H29.2642Z" fill="#FFDC00"/>
<path d="M83.8373 41.7602C83.5642 41.7825 83.2774 41.8558 83.0117 41.9253C67.9944 45.1334 52.992 48.3352 37.9734 51.5433C37.637 51.6128 37.2906 51.4477 36.9827 51.3782C28.2834 48.8852 19.5519 46.4817 10.8526 44.0297C10.3063 43.9328 9.97611 43.4884 9.73774 43.039C9.06484 42.9967 8.41428 43.0787 7.75628 43.1631C5.73883 43.3456 3.71889 43.5592 1.68778 43.7417C1.18372 43.7839 0.481027 43.7454 0.242657 44.319C0.144578 44.7249 0.512065 45.0043 0.821201 45.1855C1.95594 45.8721 3.0584 46.6319 4.16459 47.3321C4.13604 48.3129 3.97092 49.2825 3.9585 50.2633C3.9585 50.642 3.89022 51.0405 3.83435 51.4192C3.25953 51.4614 2.71575 51.5694 2.14217 51.6265C1.81938 51.7109 1.40223 51.6898 1.19241 51.9977C0.967699 52.2634 1.06454 52.6408 1.31656 52.8233C2.17072 53.5521 3.118 54.2138 3.9585 54.9699C4.43524 55.4317 4.92688 55.8576 5.44459 56.2499C6.62154 57.0209 7.68179 57.9954 8.78798 58.8496C10.6229 60.2786 12.3598 61.8106 14.237 63.185C14.7969 63.689 15.3419 64.2353 15.8882 64.753C16.1824 65.0758 16.6654 64.9194 17.044 64.8771C19.8883 64.3731 22.745 63.8951 25.5894 63.3911C27.6341 62.9429 29.7087 62.6139 31.782 62.2352C33.1688 61.9546 34.5779 61.8255 35.992 61.6567C54.3018 58.5889 72.5855 55.505 90.8966 52.4509C91.3311 52.3813 91.8699 52.3354 92.0524 51.8736C92.4869 50.5849 92.6868 49.2142 92.6297 47.8697C92.5316 47.3234 92.3988 46.792 92.2585 46.2594C92.0909 45.4885 91.6464 44.8267 91.2678 44.1538C91.1002 43.8174 90.7376 43.6734 90.4012 43.5765C88.4818 43.0017 86.5823 42.4306 84.6629 41.8421C84.3973 41.7515 84.1105 41.7366 83.8373 41.7602ZM90.3602 44.9385L90.6483 45.5158L45.1158 51.6265L43.96 51.8326L43.8358 51.8736H43.7949C43.5478 51.9071 23.2652 54.6421 16.1775 55.5472C16.1626 55.3647 16.0943 54.9686 16.0955 54.9699L43.0512 51.4192H43.0934L90.3602 44.9385ZM5.2385 47.9938C8.74329 50.3539 11.7912 51.9667 14.8565 54.4335C15.2202 55.5261 14.8639 55.2256 15.1867 56.3318C11.713 53.7967 8.65762 51.7668 5.15532 49.2726C5.28195 48.7127 5.20994 48.5674 5.2385 47.9938ZM5.07338 50.5116L15.3518 57.736C15.3518 57.736 15.517 59.9185 15.517 60.2128C12.0569 57.6205 4.9902 52.1219 4.9902 52.1219L5.07338 50.5116Z" fill="#FFDC00"/>
<path d="M82.3922 54.8048C82.1402 54.8209 81.8807 54.9004 81.6498 54.9289C70.3582 56.8061 59.063 58.6659 47.7578 60.543C45.8943 60.8236 39.5067 61.9435 37.6432 62.152C52.6903 61.4469 68.054 60.5468 83.2178 59.5101C83.3718 59.7907 83.4127 59.6554 83.301 60.0055C83.301 60.2712 83.0018 60.3345 82.8056 60.3779C74.5409 60.8125 66.2476 61.1663 57.9953 61.7399C55.7816 61.8665 53.604 62.0962 51.3904 62.152C49.9192 62.3904 48.417 62.1098 46.9322 62.1943C43.1356 62.3904 39.3763 62.5617 35.5798 62.7716C33.0024 62.8411 30.4784 63.4395 27.9432 63.8033C24.3292 64.4054 20.6866 65.0174 17.0862 65.6196C16.792 65.6618 16.4866 65.7723 16.1774 65.7028C15.3655 65.1565 13.8806 64.1161 13.0401 63.5972C9.79111 63.8641 6.845 64.1385 3.33898 64.1757C2.96031 64.0354 3.31042 63.7821 3.37995 63.473C6.38316 63.2123 9.369 63.0981 12.7099 62.9367C9.99223 60.7231 7.30933 58.4759 4.578 56.2909C4.31108 56.0388 3.62825 56.1456 3.62825 56.5801C3.23593 58.4573 2.67104 60.2761 2.30728 62.152C2.33583 63.3153 2.07139 64.4985 2.18313 65.6618C2.50592 67.0212 2.82623 68.3348 3.0497 69.7066C3.10557 70.0853 3.27566 70.6427 3.7524 70.6154C7.45086 70.5173 11.158 70.3013 14.8565 70.161C38.1547 69.8742 63.5833 67.6979 83.8373 67.6842C83.99 67.241 84.2346 66.3819 84.2917 65.9089C84.2358 65.0547 84.4146 64.2452 84.4978 63.3911C84.427 61.7237 84.1092 60.0353 84.2917 58.3543C84.0956 57.7943 84.0496 57.1947 83.7541 56.6621C83.4599 56.1444 83.2911 55.5571 83.0527 55.0109C82.864 54.8222 82.6442 54.7886 82.3922 54.8048ZM85.7778 62.6064C85.5605 62.6275 85.3669 62.7058 85.2824 62.9367C85.27 64.1745 85.3011 65.2211 85.1173 66.4464C85.9578 66.2639 86.7946 66.2155 87.6351 66.074C88.2509 66.0045 88.863 65.8393 89.4924 65.8679C89.5905 66.1336 89.6699 66.4129 89.7407 66.6935C89.4328 66.8338 89.1274 66.8996 88.791 66.9418C87.3322 67.1131 86.2955 67.3502 84.828 67.5191L84.4146 68.5508L75.4162 68.8401C75.4162 68.8401 37.0981 73.9886 15.3928 76.931C15.07 77.0005 14.6802 76.8813 14.4853 76.6008C14.4704 76.3624 14.4853 75.8571 14.4853 75.8583L70.8747 68.7159L16.5909 70.9457C16.5909 70.9457 14.381 70.9978 13.2872 71.1518C12.433 71.2213 11.5416 71.1505 10.6875 71.2349C9.62226 71.3901 8.53222 71.2598 7.467 71.4001C7.03247 71.4547 6.60787 71.4547 6.187 71.441C4.81265 71.4274 5.10192 71.4795 4.11244 71.4932C6.56442 75.4995 9.95623 81.208 12.3797 85.2293C12.6739 85.6774 12.8961 86.1989 13.2872 86.5912C14.2047 87.0617 15.2538 86.981 16.2594 86.7973C40.9568 83.295 65.6616 79.8138 90.3602 76.3115C90.7103 76.2693 91.0195 76.0421 91.1026 75.6932C91.3683 74.7261 91.593 73.7701 91.8463 72.803C91.958 72.4392 91.9432 72.0531 91.8873 71.6881C91.6775 70.4553 91.5893 69.2051 91.3497 67.9735C91.084 67.0349 90.6942 66.105 90.4012 65.1664C90.3453 64.8722 90.1169 64.7009 89.8636 64.5879C88.7003 63.9858 87.5445 63.3613 86.3961 62.7306C86.2285 62.6251 85.9938 62.5853 85.7778 62.6064ZM9.65454 72.0183C9.97734 72.0605 10.4355 71.9029 10.6453 72.2257C11.5553 73.4721 12.3064 74.8328 13.2872 76.0234C13.4548 76.4716 13.3282 76.9645 13.3704 77.4264C12.1239 75.6187 10.8874 73.826 9.65454 72.0183ZM8.61912 72.2058C10.1747 74.5312 11.636 76.89 13.2053 79.2017C13.5417 79.6921 13.4809 80.293 13.4523 80.8529C12.9061 80.2644 12.5795 79.5295 12.1314 78.8715C11.0103 77.1346 9.92271 75.3928 8.78797 73.6695C8.50739 73.2077 8.20073 72.6974 7.96236 72.207C8.17839 72.1177 8.42793 72.2058 8.61912 72.2058ZM7.20504 72.2579C9.2225 75.4375 11.3939 79.2563 13.4114 82.4222C13.4672 82.6184 13.5206 83.5333 13.5355 83.7432C12.7931 82.6916 12.2133 81.5606 11.5131 80.4817C10.3361 78.6604 9.22126 76.8118 8.04554 74.9905C7.6942 74.4033 6.82017 72.7918 6.55449 72.1474C7.11938 72.2058 6.9108 72.2083 7.20504 72.2579Z" fill="#FFDC00"/>
</g>
</g>
</g>
</g>
</g>
<defs>
<clipPath id="clip0_208_187">
<rect width="277.955" height="87" fill="white"/>
</clipPath>
<clipPath id="clip1_208_187">
<rect width="277.502" height="86.8834" fill="white" transform="translate(0.226822 0.0581665)"/>
</clipPath>
<clipPath id="clip2_208_187">
<rect width="277.502" height="86.8834" fill="white" transform="translate(0.226822 0.0581665)"/>
</clipPath>
<clipPath id="clip3_208_187">
<rect width="165.1" height="57.9223" fill="white" transform="translate(112.629 14.5388)"/>
</clipPath>
<clipPath id="clip4_208_187">
<rect width="165.1" height="57.9223" fill="white" transform="translate(112.629 14.5388)"/>
</clipPath>
<clipPath id="clip5_208_187">
<rect width="165.1" height="57.9223" fill="white" transform="translate(112.629 14.5388)"/>
</clipPath>
<clipPath id="clip6_208_187">
<rect width="165.1" height="57.9223" fill="white" transform="translate(112.629 14.5388)"/>
</clipPath>
<clipPath id="clip7_208_187">
<rect width="3.33403" height="4.22793" fill="white" transform="translate(271.93 18.1082)"/>
</clipPath>
<clipPath id="clip8_208_187">
<rect width="97.3345" height="86.8834" fill="white" transform="translate(0.226822 0.0581665)"/>
</clipPath>
<clipPath id="clip9_208_187">
<rect width="97.3345" height="86.8834" fill="white" transform="translate(0.226822 0.0581665)"/>
</clipPath>
</defs>
</svg>
