<svg width="240" height="76" viewBox="0 0 240 76" fill="none" xmlns="http://www.w3.org/2000/svg">
<g clip-path="url(#clip0_211_2)">
<g clip-path="url(#clip1_211_2)">
<g clip-path="url(#clip2_211_2)">
<path d="M91.7873 14.8246C91.7873 13.5012 91.3203 12.4285 90.7441 12.4285C90.168 12.4285 89.7009 13.5012 89.7009 14.8246V60.2953C89.7009 61.6187 90.168 62.6914 90.7441 62.6914C91.3203 62.6914 91.7873 61.6187 91.7873 60.2953V14.8246Z" fill="white"/>
<g clip-path="url(#clip3_211_2)">
<g clip-path="url(#clip4_211_2)">
<g clip-path="url(#clip5_211_2)">
<g clip-path="url(#clip6_211_2)">
<g clip-path="url(#clip7_211_2)">
<path d="M235.569 19.2858H234.798V15.6361H236.238C236.514 15.6361 236.749 15.685 236.945 15.7827C237.14 15.881 237.289 16.0195 237.391 16.1982C237.494 16.3769 237.546 16.5867 237.546 16.8276C237.546 17.0705 237.494 17.2789 237.389 17.4529C237.284 17.6269 237.133 17.7601 236.936 17.8524C236.737 17.9454 236.498 17.9919 236.218 17.9919H235.254V17.3716H236.093C236.241 17.3716 236.363 17.3515 236.461 17.3114C236.558 17.2706 236.63 17.21 236.679 17.1297C236.727 17.0487 236.751 16.948 236.751 16.8276C236.751 16.7064 236.727 16.6044 236.679 16.5214C236.63 16.4384 236.557 16.3752 236.46 16.3317C236.361 16.2882 236.238 16.2665 236.089 16.2665H235.569V19.2858ZM235.937 17.6245H236.769L237.676 19.2858H236.824L235.937 17.6245Z" fill="white"/>
</g>
<path d="M232.67 17.4606C232.67 15.4905 234.267 13.8933 236.237 13.8933C238.207 13.8933 239.804 15.4905 239.804 17.4606C239.804 19.4308 238.207 21.028 236.237 21.028C234.267 21.028 232.67 19.4308 232.67 17.4606ZM236.237 20.6889C238.02 20.6889 239.465 19.2434 239.465 17.4606C239.465 15.6779 238.02 14.233 236.237 14.233C234.454 14.233 233.009 15.6779 233.009 17.4606C233.009 19.2434 234.454 20.6889 236.237 20.6889Z" fill="white"/>
<path d="M100.013 36.3466C99.6037 36.3466 99.2315 36.2544 98.8954 36.0702C98.5557 35.8859 98.3856 35.6199 98.3856 35.2715V14.9684C98.3856 14.5795 98.5557 14.3031 98.8954 14.139C99.2315 13.975 99.6037 13.8933 100.013 13.8933C100.402 13.8933 100.737 13.9504 101.015 14.0653C101.289 14.1759 101.539 14.3645 101.764 14.6305C101.99 14.8965 102.225 15.2651 102.471 15.7363L109.29 29.0362V14.9376C109.29 14.5691 109.46 14.3031 109.8 14.139C110.136 13.975 110.508 13.8933 110.918 13.8933C111.327 13.8933 111.702 13.975 112.042 14.139C112.378 14.3031 112.546 14.5691 112.546 14.9376V35.2715C112.546 35.6199 112.378 35.8859 112.042 36.0702C111.702 36.2544 111.327 36.3466 110.918 36.3466C110.508 36.3466 110.139 36.244 109.812 36.0394C109.484 35.8349 109.208 35.5375 108.983 35.1487L101.641 21.173V35.2715C101.641 35.6199 101.474 35.8859 101.138 36.0702C100.798 36.2544 100.423 36.3466 100.013 36.3466ZM123.265 36.5309C121.955 36.5309 120.784 36.3054 119.752 35.8551C118.715 35.4049 117.896 34.6775 117.294 33.6743C116.688 32.6711 116.385 31.3399 116.385 29.6813V20.7429C116.385 19.0843 116.688 17.7531 117.294 16.7499C117.896 15.7467 118.715 15.0194 119.752 14.5691C120.784 14.1188 121.955 13.8933 123.265 13.8933C124.555 13.8933 125.723 14.1188 126.767 14.5691C127.811 15.0194 128.641 15.7467 129.255 16.7499C129.869 17.7531 130.176 19.0843 130.176 20.7429V29.6813C130.176 31.3399 129.869 32.6711 129.255 33.6743C128.641 34.6775 127.811 35.4049 126.767 35.8551C125.723 36.3054 124.555 36.5309 123.265 36.5309ZM123.265 33.6436C124.391 33.6436 125.282 33.3199 125.938 32.673C126.593 32.0298 126.921 31.0328 126.921 29.6813V20.7429C126.921 19.3914 126.599 18.392 125.956 17.7451C125.309 17.1019 124.412 16.7806 123.265 16.7806C122.118 16.7806 121.224 17.1019 120.581 17.7451C119.934 18.392 119.61 19.3914 119.61 20.7429V29.6813C119.61 31.0328 119.934 32.0298 120.581 32.673C121.224 33.3199 122.118 33.6436 123.265 33.6436ZM146.087 36.4387C145.821 36.4387 145.582 36.3466 145.369 36.1623C145.152 35.978 144.971 35.7526 144.828 35.4866L140.313 26.7018H137.241V35.2715C137.241 35.6199 137.073 35.8859 136.737 36.0702C136.398 36.2544 136.023 36.3466 135.613 36.3466C135.203 36.3466 134.831 36.2544 134.495 36.0702C134.155 35.8859 133.985 35.6199 133.985 35.2715V14.9376C133.985 14.6508 134.084 14.405 134.28 14.2005C134.472 13.9959 134.743 13.8933 135.091 13.8933H140.927C142.217 13.8933 143.395 14.0819 144.459 14.4585C145.524 14.8394 146.374 15.4844 147.009 16.3936C147.643 17.3071 147.961 18.5621 147.961 20.1593C147.961 21.388 147.772 22.412 147.396 23.2309C147.015 24.0498 146.503 24.6991 145.86 25.1783C145.213 25.6618 144.48 26.0156 143.661 26.2411L147.961 34.3194C148.002 34.3808 148.033 34.4563 148.053 34.5466C148.073 34.6406 148.084 34.7187 148.084 34.7801C148.084 35.0461 147.981 35.3066 147.777 35.5603C147.572 35.8183 147.322 36.029 147.027 36.193C146.728 36.357 146.415 36.4387 146.087 36.4387ZM137.241 16.7806V24.091H140.927C142.074 24.091 142.991 23.8145 143.679 23.2616C144.363 22.7088 144.705 21.767 144.705 20.4358C144.705 19.1046 144.363 18.1628 143.679 17.6099C142.991 17.057 142.074 16.7806 140.927 16.7806H137.241ZM156.439 36.3466C156.029 36.3466 155.656 36.2544 155.32 36.0702C154.981 35.8859 154.811 35.6199 154.811 35.2715V16.8727H150.05C149.722 16.8727 149.466 16.7192 149.282 16.412C149.097 16.1049 149.005 15.7565 149.005 15.3677C149.005 14.9991 149.087 14.6612 149.251 14.354C149.415 14.0469 149.681 13.8933 150.05 13.8933H162.797C163.186 13.8933 163.462 14.0469 163.626 14.354C163.79 14.6612 163.872 14.9886 163.872 15.337C163.872 15.7467 163.786 16.1049 163.614 16.412C163.437 16.7192 163.165 16.8727 162.797 16.8727H158.066V35.2715C158.066 35.6199 157.899 35.8859 157.563 36.0702C157.223 36.2544 156.848 36.3466 156.439 36.3466ZM167.865 36.3466C167.455 36.3466 167.083 36.2544 166.747 36.0702C166.407 35.8859 166.237 35.6199 166.237 35.2715V14.9376C166.237 14.5691 166.407 14.3031 166.747 14.139C167.083 13.975 167.455 13.8933 167.865 13.8933C168.275 13.8933 168.649 13.975 168.989 14.139C169.325 14.3031 169.493 14.5691 169.493 14.9376V23.4152H177.141V14.9376C177.141 14.5691 177.309 14.3031 177.645 14.139C177.984 13.975 178.359 13.8933 178.769 13.8933C179.179 13.8933 179.551 13.975 179.887 14.139C180.227 14.3031 180.397 14.5691 180.397 14.9376V35.2715C180.397 35.6199 180.227 35.8859 179.887 36.0702C179.551 36.2544 179.179 36.3466 178.769 36.3466C178.359 36.3466 177.984 36.2544 177.645 36.0702C177.309 35.8859 177.141 35.6199 177.141 35.2715V25.9954H169.493V35.2715C169.493 35.6199 169.325 35.8859 168.989 36.0702C168.649 36.2544 168.275 36.3466 167.865 36.3466ZM196.83 36.3466H185.895C185.547 36.3466 185.219 36.2544 184.912 36.0702C184.605 35.8859 184.451 35.6199 184.451 35.2715V14.9684C184.451 14.62 184.605 14.354 184.912 14.1698C185.219 13.9855 185.547 13.8933 185.895 13.8933H196.83C197.219 13.8933 197.495 14.0469 197.659 14.354C197.823 14.6612 197.905 14.9788 197.905 15.3062C197.905 15.6951 197.813 16.0373 197.628 16.3321C197.444 16.6313 197.178 16.7806 196.83 16.7806H187.707V23.8145H192.437C192.786 23.8145 193.052 23.9478 193.236 24.2138C193.42 24.4798 193.513 24.787 193.513 25.1353C193.513 25.4222 193.431 25.7023 193.267 25.9769C193.103 26.2552 192.826 26.3947 192.437 26.3947H187.707V33.4593H196.83C197.178 33.4593 197.444 33.6024 197.628 33.8893C197.813 34.1762 197.905 34.5239 197.905 34.9337C197.905 35.2611 197.823 35.5787 197.659 35.8859C197.495 36.193 197.219 36.3466 196.83 36.3466ZM212.587 36.4387C212.321 36.4387 212.079 36.3466 211.862 36.1623C211.649 35.978 211.471 35.7526 211.328 35.4866L206.812 26.7018H203.741V35.2715C203.741 35.6199 203.571 35.8859 203.231 36.0702C202.895 36.2544 202.523 36.3466 202.113 36.3466C201.703 36.3466 201.328 36.2544 200.989 36.0702C200.653 35.8859 200.485 35.6199 200.485 35.2715V14.9376C200.485 14.6508 200.581 14.405 200.774 14.2005C200.97 13.9959 201.242 13.8933 201.591 13.8933H207.427C208.717 13.8933 209.895 14.0819 210.959 14.4585C212.024 14.8394 212.874 15.4844 213.509 16.3936C214.143 17.3071 214.461 18.5621 214.461 20.1593C214.461 21.388 214.27 22.412 213.889 23.2309C213.513 24.0498 213.001 24.6991 212.354 25.1783C211.71 25.6618 210.979 26.0156 210.161 26.2411L214.461 34.3194C214.502 34.3808 214.533 34.4563 214.553 34.5466C214.573 34.6406 214.584 34.7187 214.584 34.7801C214.584 35.0461 214.481 35.3066 214.276 35.5603C214.072 35.8183 213.82 36.029 213.521 36.193C213.226 36.357 212.915 36.4387 212.587 36.4387ZM203.741 16.7806V24.091H207.427C208.574 24.091 209.489 23.8145 210.173 23.2616C210.861 22.7088 211.205 21.767 211.205 20.4358C211.205 19.1046 210.861 18.1628 210.173 17.6099C209.489 17.057 208.574 16.7806 207.427 16.7806H203.741ZM219.099 36.3466C218.689 36.3466 218.314 36.2544 217.975 36.0702C217.639 35.8859 217.471 35.6199 217.471 35.2715V14.9684C217.471 14.5795 217.639 14.3031 217.975 14.139C218.314 13.975 218.689 13.8933 219.099 13.8933C219.488 13.8933 219.819 13.9504 220.094 14.0653C220.372 14.1759 220.624 14.3645 220.85 14.6305C221.075 14.8965 221.31 15.2651 221.556 15.7363L228.375 29.0362V14.9376C228.375 14.5691 228.543 14.3031 228.879 14.139C229.218 13.975 229.593 13.8933 230.003 13.8933C230.413 13.8933 230.787 13.975 231.127 14.139C231.463 14.3031 231.631 14.5691 231.631 14.9376V35.2715C231.631 35.6199 231.463 35.8859 231.127 36.0702C230.787 36.2544 230.413 36.3466 230.003 36.3466C229.593 36.3466 229.225 36.244 228.897 36.0394C228.57 35.8349 228.293 35.5375 228.068 35.1487L220.727 21.173V35.2715C220.727 35.6199 220.559 35.8859 220.223 36.0702C219.883 36.2544 219.509 36.3466 219.099 36.3466Z" fill="white"/>
<path d="M104.037 61.2265C102.706 61.2265 101.529 61.0317 100.505 60.6429C99.4809 60.254 98.6823 59.7767 98.1091 59.2115C97.536 58.6506 97.2491 58.1137 97.2491 57.602C97.2491 57.3563 97.3167 57.1001 97.4518 56.8341C97.5827 56.5681 97.7571 56.3365 97.974 56.1399C98.1871 55.9476 98.4163 55.8512 98.662 55.8512C98.9489 55.8512 99.221 55.9679 99.479 56.2014C99.7328 56.4391 100.044 56.7217 100.413 57.0491C100.781 57.3765 101.242 57.6634 101.795 57.9092C102.348 58.1549 103.054 58.2777 103.914 58.2777C104.652 58.2777 105.313 58.1592 105.899 57.9214C106.48 57.688 106.941 57.3299 107.281 56.8464C107.617 56.3672 107.785 55.759 107.785 55.0219C107.785 54.2435 107.606 53.5985 107.25 53.0868C106.89 52.575 106.409 52.145 105.807 51.7967C105.2 51.4484 104.549 51.1314 103.853 50.8445C103.157 50.5576 102.45 50.2505 101.734 49.923C101.017 49.5956 100.362 49.2 99.7678 48.7374C99.1737 48.2785 98.6989 47.6949 98.3426 46.9866C97.982 46.282 97.802 45.3974 97.802 44.3327C97.802 43.2067 98.0127 42.2643 98.4347 41.5069C98.8524 40.7494 99.4096 40.1449 100.106 39.6947C100.802 39.2444 101.57 38.9206 102.409 38.724C103.249 38.5318 104.078 38.4353 104.897 38.4353C105.409 38.4353 105.979 38.4722 106.605 38.5459C107.227 38.6153 107.836 38.7363 108.43 38.9083C109.024 39.0846 109.515 39.3156 109.904 39.6025C110.293 39.8894 110.488 40.2371 110.488 40.6468C110.488 40.8514 110.437 41.091 110.334 41.3656C110.231 41.6439 110.084 41.8859 109.892 42.0905C109.695 42.2951 109.443 42.3976 109.136 42.3976C108.87 42.3976 108.573 42.2994 108.245 42.1028C107.918 41.9105 107.494 41.7158 106.974 41.5192C106.45 41.3269 105.757 41.2304 104.897 41.2304C104.16 41.2304 103.501 41.333 102.919 41.5376C102.334 41.7422 101.877 42.0432 101.549 42.4406C101.222 42.8418 101.058 43.3701 101.058 44.0256C101.058 44.6811 101.238 45.2174 101.598 45.6351C101.955 46.0571 102.43 46.4153 103.024 46.7102C103.618 47.0093 104.269 47.2919 104.977 47.5579C105.682 47.8239 106.388 48.1354 107.097 48.4917C107.801 48.8523 108.456 49.2884 109.062 49.8002C109.664 50.3119 110.145 50.9612 110.506 51.7476C110.862 52.5382 111.04 53.5168 111.04 54.684C111.04 56.1583 110.739 57.3808 110.137 58.3515C109.531 59.3264 108.702 60.0488 107.649 60.52C106.593 60.9912 105.389 61.2265 104.037 61.2265ZM115.709 60.9807C115.3 60.9807 114.927 60.8886 114.591 60.7043C114.252 60.52 114.081 60.254 114.081 59.9057V39.5718C114.081 39.2032 114.252 38.9372 114.591 38.7732C114.927 38.6092 115.3 38.5275 115.709 38.5275C116.119 38.5275 116.494 38.6092 116.834 38.7732C117.17 38.9372 117.337 39.2032 117.337 39.5718V59.9057C117.337 60.254 117.17 60.52 116.834 60.7043C116.494 60.8886 116.119 60.9807 115.709 60.9807ZM128.057 61.165C126.747 61.165 125.575 60.9396 124.543 60.4893C123.507 60.039 122.688 59.3116 122.086 58.3085C121.48 57.3053 121.177 55.9741 121.177 54.3154V45.3771C121.177 43.7184 121.48 42.3872 122.086 41.384C122.688 40.3808 123.507 39.6535 124.543 39.2032C125.575 38.7529 126.716 38.5275 127.965 38.5275C129.358 38.5275 130.576 38.7627 131.62 39.2339C132.664 39.7051 133.483 40.36 134.077 41.1997C134.671 42.0395 134.968 43.0427 134.968 44.2099C134.968 44.8242 134.831 45.2376 134.557 45.4508C134.278 45.6677 133.873 45.7764 133.34 45.7764C132.91 45.7764 132.537 45.6984 132.222 45.543C131.903 45.3912 131.733 45.1111 131.712 44.7013C131.651 44.1073 131.508 43.5587 131.282 43.055C131.057 42.5555 130.688 42.1562 130.176 41.857C129.665 41.5622 128.958 41.4147 128.057 41.4147C126.91 41.4147 126.016 41.736 125.373 42.3792C124.726 43.0261 124.402 44.0256 124.402 45.3771V54.3154C124.402 55.6669 124.726 56.6639 125.373 57.3071C126.016 57.954 126.91 58.2777 128.057 58.2777C129.183 58.2777 130.074 57.954 130.729 57.3071C131.385 56.6639 131.712 55.6669 131.712 54.3154V51.7967H128.61C128.283 51.7967 128.026 51.6634 127.842 51.3974C127.658 51.1314 127.566 50.8242 127.566 50.4759C127.566 50.1688 127.658 49.8757 127.842 49.5974C128.026 49.3228 128.283 49.1859 128.61 49.1859H133.893C134.241 49.1859 134.507 49.2921 134.692 49.5053C134.876 49.7221 134.968 49.9845 134.968 50.2916V54.3154C134.968 55.9741 134.661 57.3053 134.047 58.3085C133.432 59.3116 132.603 60.039 131.559 60.4893C130.514 60.9396 129.347 61.165 128.057 61.165ZM140.067 60.9807C139.657 60.9807 139.285 60.8886 138.949 60.7043C138.609 60.52 138.439 60.254 138.439 59.9057V39.6025C138.439 39.2136 138.609 38.9372 138.949 38.7732C139.285 38.6092 139.657 38.5275 140.067 38.5275C140.456 38.5275 140.79 38.5846 141.068 38.6995C141.343 38.81 141.592 38.9986 141.818 39.2646C142.043 39.5306 142.279 39.8992 142.524 40.3704L149.343 53.6704V39.5718C149.343 39.2032 149.513 38.9372 149.853 38.7732C150.189 38.6092 150.561 38.5275 150.971 38.5275C151.381 38.5275 151.756 38.6092 152.095 38.7732C152.431 38.9372 152.599 39.2032 152.599 39.5718V59.9057C152.599 60.254 152.431 60.52 152.095 60.7043C151.756 60.8886 151.381 60.9807 150.971 60.9807C150.561 60.9807 150.193 60.8781 149.865 60.6736C149.538 60.469 149.261 60.1717 149.036 59.7828L141.695 45.8071V59.9057C141.695 60.254 141.527 60.52 141.191 60.7043C140.851 60.8886 140.477 60.9807 140.067 60.9807ZM162.305 61.2265C160.974 61.2265 159.797 61.0317 158.773 60.6429C157.749 60.254 156.95 59.7767 156.377 59.2115C155.804 58.6506 155.517 58.1137 155.517 57.602C155.517 57.3563 155.585 57.1001 155.72 56.8341C155.851 56.5681 156.025 56.3365 156.242 56.1399C156.455 55.9476 156.684 55.8512 156.93 55.8512C157.217 55.8512 157.489 55.9679 157.747 56.2014C158.001 56.4391 158.312 56.7217 158.681 57.0491C159.049 57.3765 159.51 57.6634 160.063 57.9092C160.616 58.1549 161.322 58.2777 162.182 58.2777C162.92 58.2777 163.581 58.1592 164.167 57.9214C164.748 57.688 165.209 57.3299 165.549 56.8464C165.885 56.3672 166.053 55.759 166.053 55.0219C166.053 54.2435 165.874 53.5985 165.518 53.0868C165.158 52.575 164.677 52.145 164.074 51.7967C163.468 51.4484 162.817 51.1314 162.121 50.8445C161.425 50.5576 160.718 50.2505 160.002 49.923C159.285 49.5956 158.63 49.2 158.036 48.7374C157.442 48.2785 156.967 47.6949 156.611 46.9866C156.25 46.282 156.07 45.3974 156.07 44.3327C156.07 43.2067 156.281 42.2643 156.703 41.5069C157.12 40.7494 157.678 40.1449 158.374 39.6947C159.07 39.2444 159.838 38.9206 160.677 38.724C161.517 38.5318 162.346 38.4353 163.165 38.4353C163.677 38.4353 164.246 38.4722 164.873 38.5459C165.495 38.6153 166.104 38.7363 166.698 38.9083C167.292 39.0846 167.783 39.3156 168.172 39.6025C168.561 39.8894 168.756 40.2371 168.756 40.6468C168.756 40.8514 168.705 41.091 168.602 41.3656C168.499 41.6439 168.352 41.8859 168.16 42.0905C167.963 42.2951 167.711 42.3976 167.404 42.3976C167.138 42.3976 166.841 42.2994 166.513 42.1028C166.186 41.9105 165.762 41.7158 165.242 41.5192C164.718 41.3269 164.025 41.2304 163.165 41.2304C162.428 41.2304 161.769 41.333 161.187 41.5376C160.602 41.7422 160.145 42.0432 159.817 42.4406C159.49 42.8418 159.326 43.3701 159.326 44.0256C159.326 44.6811 159.506 45.2174 159.866 45.6351C160.223 46.0571 160.698 46.4153 161.292 46.7102C161.886 47.0093 162.537 47.2919 163.245 47.5579C163.95 47.8239 164.656 48.1354 165.365 48.4917C166.069 48.8523 166.724 49.2884 167.33 49.8002C167.932 50.3119 168.413 50.9612 168.774 51.7476C169.13 52.5382 169.308 53.5168 169.308 54.684C169.308 56.1583 169.007 57.3808 168.405 58.3515C167.799 59.3264 166.97 60.0488 165.917 60.52C164.861 60.9912 163.657 61.2265 162.305 61.2265Z" fill="white"/>
</g>
</g>
</g>
</g>
<g clip-path="url(#clip8_211_2)">
<g clip-path="url(#clip9_211_2)">
<path d="M70.6429 0.0564372C68.8774 0.226882 67.0625 0.0778771 65.2959 0.235458C64.1349 0.271906 62.9997 0.270834 61.8388 0.306209C61.2706 0.367312 60.7089 0.353376 60.1279 0.378032C57.5519 0.402687 54.9459 0.532397 52.3571 0.520605C50.7481 0.653531 49.154 0.614939 47.545 0.663178C45.8995 0.82076 44.2358 0.69641 42.5903 0.841127C41.2117 0.877575 39.8224 0.865783 38.4556 0.876503C36.883 1.00943 35.3233 0.982629 33.7507 1.01908C31.9359 1.17666 30.1113 1.04052 28.2976 1.19703C27.1848 1.23347 26.0603 1.2324 24.9465 1.26885C24.1243 1.35353 23.3096 1.30422 22.4874 1.3396C20.3949 1.3396 18.3185 1.50683 16.2142 1.48217C14.5333 1.60331 12.8106 1.60009 11.1169 1.62475C8.9633 1.80591 6.81827 1.62153 4.66573 1.83914C4.41167 2.06855 4.18441 2.37084 3.88104 2.55201C3.91749 2.75783 3.82959 3.08478 4.05899 3.19305C4.42239 3.36243 4.82439 3.32276 5.19958 3.40745C5.27247 3.94022 5.6809 4.31542 5.98427 4.72599C6.54063 5.5364 6.97049 6.47868 6.94691 7.47133C6.93512 7.96766 7.0466 8.49722 6.76789 8.93244C6.55027 9.31942 6.22439 9.62601 6.05502 10.0377C5.83741 10.0623 5.53404 10.0205 5.44935 10.2864C5.31642 10.4675 5.37324 10.7494 5.6273 10.7859C7.7927 11.4269 9.9849 11.9983 12.1503 12.6393C12.682 12.8441 13.2459 12.6393 13.7904 12.6393C16.2463 12.6147 18.713 12.5096 21.1689 12.4614C41.127 11.905 61.0927 11.3658 81.0508 10.8213C81.4625 10.8331 81.7219 10.4804 82.0488 10.2864C82.617 9.93581 82.8785 9.26368 83.0115 8.64729C83.0115 7.70395 83.2162 6.77454 83.0822 5.8312C82.9965 5.1655 83.0597 4.51266 83.0115 3.83517C82.8292 3.45998 82.5269 3.15339 82.3693 2.76533C82.2 2.36656 82.021 1.87773 81.5857 1.69657C81.0894 1.39427 80.4902 1.53148 79.9456 1.4468C77.1392 1.01157 74.3402 0.563484 71.5338 0.12826C71.2315 0.0800207 70.9452 0.0328536 70.6429 0.0564372ZM6.19759 3.47927C7.77019 3.68509 9.35351 3.85554 10.939 4.04957C11.2048 4.19428 11.2927 4.50837 11.4374 4.76243C10.0707 4.75064 8.72854 4.47836 7.37463 4.37009C6.81827 4.38081 6.58458 3.78157 6.19759 3.47927ZM7.55258 5.40348C8.97938 5.46351 10.3794 5.7701 11.7944 5.86657C12.0002 6.35004 12.2436 6.79598 12.4001 7.29231C10.9004 7.14759 9.39638 6.90425 7.90847 6.68664C7.76376 6.275 7.66085 5.82691 7.55258 5.40348ZM7.90847 7.72003C9.40818 7.84116 10.8993 8.14561 12.4001 8.29032V9.71606L7.8731 8.86062C7.89775 8.4865 7.92134 8.09522 7.90847 7.72003ZM7.41 9.78788C9.05549 10.0666 10.6956 10.4 12.3293 10.7141C12.1964 11.0046 12.1031 11.3144 12.1149 11.6413C10.4341 11.1932 8.71032 10.7945 7.05303 10.2864C7.17417 10.117 7.30066 9.95618 7.41 9.78788Z" fill="white"/>
<path d="M82.8324 10.8567C82.5494 10.9017 82.2847 11.2458 82.0488 11.3916C81.5042 11.8997 80.7185 11.7228 80.0528 11.7839C57.5905 12.4003 34.7959 12.7015 12.3336 13.4155C9.28705 12.574 6.51705 11.323 3.38794 10.4429C3.41796 10.5758 2.68258 10.9628 3.05134 11.3541C3.4201 11.7443 4.89193 12.1377 4.87907 12.2824C4.85441 12.9352 5.12776 13.5538 5.16421 14.2077C5.20066 15.1392 5.01949 16.0804 5.12884 17.0238C5.16528 17.459 5.31965 17.8953 5.27141 18.3423C4.41168 18.6585 2.78977 18.8461 2.78977 18.8461L2.41458 19.5526C2.41458 19.5526 7.93743 20.5441 10.4041 20.9804C17.2744 22.1661 24.1233 23.3484 31.0065 24.473C31.9133 24.7024 32.8438 24.4033 33.7507 24.3304C49.9237 22.2861 66.1138 20.244 82.2986 18.1997C82.6009 18.1633 82.9729 18.0861 83.1176 17.772C83.6375 16.6957 84.077 15.5476 84.2228 14.3502C84.2228 13.7456 84.2592 13.1496 84.2228 12.5322C83.9687 11.9394 83.541 11.4119 83.1176 10.9285C83.0147 10.8652 82.9268 10.8427 82.8324 10.8567ZM5.76988 12.604L9.47679 13.8153L7.37464 13.7092L6.01965 13.5666L5.76988 12.604ZM30.7921 14.0651L31.7901 15.6334L17.283 14.5282L30.7921 14.0651ZM6.16223 14.6354C7.45611 14.6472 8.7532 14.8005 10.0471 14.8852C16.748 15.4169 23.449 15.9925 30.151 16.5242C30.8038 16.5971 31.4578 16.6432 32.1117 16.6314C32.221 16.9455 32.2424 17.2671 32.2542 17.5941C30.3547 17.4976 28.4734 17.2167 26.5867 17.0591C22.8733 16.6722 19.1911 16.3055 15.4659 15.9185C12.3808 15.628 9.28276 15.2582 6.1976 14.9913C6.18688 14.8584 6.17402 14.7683 6.16223 14.6354ZM6.09148 15.9539C14.8496 16.849 23.6162 17.7559 32.3604 18.6628C32.4333 19.0262 32.4911 19.3928 32.5029 19.768C23.6966 18.6918 14.8614 17.6605 6.05503 16.5607C6.06682 16.3666 6.0904 16.148 6.09148 15.9539ZM6.23405 17.6294C7.66085 17.7023 9.048 17.9478 10.4748 18.0925C17.7804 18.9758 25.0773 19.8709 32.3968 20.7307C32.3839 21.0694 32.3282 21.3781 32.1824 21.6933C31.4084 21.6687 30.6398 21.4928 29.8659 21.4082C22.2816 20.3308 14.6855 19.276 7.08949 18.1997C6.79898 18.1751 6.51169 18.1065 6.23405 18.0218C6.22226 17.9253 6.23405 17.727 6.23405 17.6294ZM5.9489 19.0905C6.37233 19.0905 6.78505 19.1131 7.19562 19.1977C15.3609 20.3469 23.5187 21.5186 31.6839 22.6549C31.5392 22.9336 31.4127 23.2198 31.2916 23.5103C22.8369 22.2164 14.3682 20.7682 5.91245 19.4507C5.69484 19.4025 5.92425 19.2117 5.9489 19.0905Z" fill="white"/>
<path d="M79.3399 19.0905C78.433 19.0541 77.5615 19.2792 76.6664 19.3756C62.066 21.3953 47.4957 23.4149 32.8953 25.4356C32.5319 25.4838 32.1535 25.5792 31.7901 25.5428C29.2259 24.9617 26.6446 24.5887 24.0557 24.117C15.913 22.9475 9.11447 21.302 1.84965 19.9106C1.38977 19.9835 1.33188 20.692 1.74245 20.8378C2.47998 21.1519 3.30862 21.2141 4.09545 21.4081C4.20479 22.4362 4.85441 23.3023 4.95089 24.3303C5.01092 24.9231 5.18994 25.4838 5.12884 26.0766C5.00771 26.6447 4.7976 27.1947 4.7365 27.7875C4.20479 28.1509 3.42761 27.959 2.88304 28.3578C2.7737 28.6 2.7469 28.9731 3.02561 29.1071C3.30433 29.2647 3.61413 29.3311 3.91643 29.4276C5.61016 29.9593 7.31997 30.476 9.0137 30.9959C13.247 32.1333 17.4695 33.2449 21.7027 34.3823C21.9086 34.4434 22.1262 34.5377 22.3449 34.4895C23.1553 34.3201 23.9818 34.2419 24.804 34.1325C35.3759 32.8504 45.9552 31.5298 56.5271 30.2477C64.0513 29.3161 71.5777 28.4596 79.0902 27.467C79.4889 27.4552 79.7762 27.1636 79.9456 26.8259C80.2597 26.1967 80.7764 25.6039 80.8364 24.8653C80.8965 23.8737 80.8857 22.8982 80.801 21.9066C80.6917 21.1444 80.2361 20.4573 79.9456 19.768C79.8009 19.5021 79.6905 19.1152 79.3399 19.0905ZM5.09347 21.6214C10.8146 22.7106 16.5165 23.8823 22.2377 25.0078C22.8423 25.0679 23.2292 25.606 23.5926 26.0412C18.1609 25.025 12.7345 23.9691 7.30282 22.94C6.69822 22.8435 6.1022 22.6677 5.48474 22.6195C5.35181 22.2807 5.21353 21.9602 5.09347 21.6214ZM5.84171 23.6893C11.6722 24.7538 17.5006 25.9158 23.3429 27.0039C23.5122 27.0285 23.673 27.0039 23.8413 27.0039C23.866 27.512 23.8767 28.0405 23.8778 28.5368C22.1358 28.1016 20.3917 27.8304 18.6379 27.467C14.7917 26.7048 10.9358 25.9362 7.08949 25.1858C6.72609 25.114 6.38306 25.0454 6.01966 24.936C5.995 24.5137 5.88995 24.1127 5.84171 23.6893ZM6.23405 26.0058C8.19363 26.4657 10.1789 26.7712 12.1503 27.1818C15.8401 27.9075 19.5341 28.6301 23.2357 29.3569C23.4168 29.4169 23.6248 29.3343 23.806 29.285C23.7813 29.6967 23.7234 30.133 23.6998 30.5328C18.2563 29.359 12.8407 28.1541 7.41002 26.9685C6.95014 26.8838 6.51491 26.767 6.05503 26.7187C6.09148 26.4764 6.11292 26.2353 6.23405 26.0058ZM5.69913 27.6814C6.23084 27.7178 6.75932 27.8572 7.26744 27.9665C12.6627 29.1275 18.0548 30.2981 23.4501 31.459C23.3654 31.9307 23.2035 32.4142 23.0223 32.8494C21.4862 32.4506 19.9608 32.084 18.4235 31.7088C17.1779 31.4065 15.9023 31.1932 14.6813 30.7826C11.6937 29.8628 8.69854 28.9216 5.69913 28.0019V27.6814Z" fill="white"/>
<path d="M78.8404 28.3224C78.4448 28.3406 78.0546 28.4382 77.6644 28.465C59.8288 31.0345 22.3448 35.3439 22.3448 35.345C22.3448 35.345 15.199 33.6287 11.4728 32.5996C11.1941 32.5149 10.8457 32.5471 10.6892 32.814C10.5198 33.3586 10.9379 33.827 11.0097 34.3469C11.0826 35.1327 10.9518 35.9249 10.8318 36.6989C10.4566 36.9283 9.90987 36.9176 9.65581 37.3045C17.1672 39.3488 24.6593 41.4992 32.1824 43.507C32.4118 43.5671 32.653 43.5788 32.8953 43.5424C48.1003 40.4583 63.2913 37.4075 78.4845 34.3105C79.162 34.2012 79.4182 33.4765 79.6958 32.9566C80.0228 31.9521 79.8738 30.8834 79.9102 29.8553C79.8856 29.4919 79.9981 29.0524 79.7323 28.7501C79.5993 28.5808 79.4268 28.4189 79.2327 28.3224C79.0998 28.3042 78.9722 28.3171 78.8404 28.3224ZM11.937 33.7402C14.0906 34.3084 16.2003 34.9301 18.3528 35.4875C16.3203 35.0277 14.3254 34.5688 12.2929 34.1326C12.0753 34.1208 11.9724 33.946 11.937 33.7402ZM11.9724 35.0598C17.6088 36.3055 23.255 37.6154 28.9032 38.8729C30.4758 39.2234 32.0238 39.6522 33.6081 39.9427C33.5953 40.2932 33.576 40.6384 33.3948 40.9407C26.3305 39.054 19.2865 37.1963 12.2221 35.3085C12.101 35.2721 12.0206 35.1681 11.9724 35.0598ZM30.8639 35.3085C31.1029 35.2914 31.3688 35.3074 31.6839 35.345C32.6155 35.4897 33.3691 36.2904 33.4656 37.2338C31.6153 36.8586 26.8354 35.9506 26.8364 35.9506C26.8364 35.9506 29.4832 35.6419 30.0792 35.4157C30.3933 35.3793 30.6248 35.3257 30.8639 35.3085ZM11.9005 36.2712C13.4249 36.6099 14.9149 37.0719 16.4275 37.4471C21.9311 38.9104 27.4035 40.3918 32.8953 41.8315C32.7859 42.1102 32.6048 42.583 32.2178 42.4018C25.4322 40.4787 18.639 38.563 11.8652 36.6281C11.8652 36.5434 11.8877 36.3558 11.9005 36.2712ZM25.2681 36.3784C25.2681 36.3784 30.5723 37.5725 32.6101 38.0892C32.9242 38.1739 33.2458 38.2436 33.5728 38.2672C33.5856 38.4848 33.5964 38.6906 33.6081 38.9093C30.1853 38.22 26.7775 37.3539 23.3429 36.6281C24.4802 36.4105 25.2681 36.3784 25.2671 36.3784H25.2681Z" fill="white"/>
<path d="M72.3892 36.0579C72.1534 36.0772 71.9057 36.1405 71.6763 36.2005C58.7096 38.9705 45.7558 41.7351 32.7881 44.5051C32.4976 44.5652 32.1985 44.4226 31.9326 44.3626C24.4213 42.21 16.882 40.1347 9.37067 38.0175C8.89899 37.9339 8.61385 37.5501 8.40803 37.1621C7.82701 37.1256 7.2653 37.1964 6.69715 37.2693C4.95518 37.4268 3.21107 37.6112 1.4573 37.7688C1.02208 37.8052 0.41534 37.772 0.209519 38.2673C0.124833 38.6178 0.442139 38.859 0.709062 39.0155C1.68885 39.6083 2.64077 40.2644 3.59591 40.869C3.57125 41.7158 3.42868 42.553 3.41796 43.3999C3.41796 43.7269 3.359 44.071 3.31076 44.3979C2.81443 44.4344 2.3449 44.5276 1.84965 44.5769C1.57093 44.6498 1.21075 44.6316 1.02958 44.8975C0.835556 45.1269 0.91917 45.4528 1.13678 45.6103C1.87431 46.2396 2.69223 46.811 3.41796 47.4638C3.8296 47.8626 4.2541 48.2303 4.70112 48.569C5.71736 49.2347 6.63283 50.0762 7.58796 50.8137C9.17235 52.0476 10.6721 53.3704 12.2929 54.5571C12.7763 54.9923 13.2469 55.464 13.7186 55.911C13.9727 56.1897 14.3897 56.0546 14.7166 56.0182C17.1725 55.583 19.6392 55.1703 22.0951 54.735C23.8606 54.3481 25.6519 54.064 27.4421 53.737C28.6395 53.4948 29.8562 53.3833 31.0772 53.2375C46.8868 50.5886 62.6738 47.9258 78.4845 45.2887C78.8597 45.2287 79.3249 45.189 79.4825 44.7903C79.8577 43.6776 80.0303 42.4941 79.981 41.3331C79.8963 40.8615 79.7816 40.4027 79.6604 39.9428C79.5157 39.2771 79.132 38.7057 78.805 38.1247C78.6603 37.8342 78.3473 37.7098 78.0568 37.6262C76.3995 37.1299 74.7593 36.6368 73.1021 36.1287C72.8727 36.0504 72.625 36.0375 72.3892 36.0579ZM78.0214 38.8022L78.2701 39.3007L38.9552 44.5769L37.9572 44.7549L37.85 44.7903H37.8146C37.6013 44.8192 20.0883 47.1808 13.9684 47.9623C13.9555 47.8047 13.8966 47.4627 13.8976 47.4638L37.1725 44.3979H37.2089L78.0214 38.8022ZM4.52317 41.4403C7.54937 43.4782 10.1811 44.8707 12.8278 47.0007C13.1419 47.944 12.8342 47.6846 13.113 48.6398C10.1135 46.4508 7.4754 44.6981 4.45135 42.5445C4.56069 42.061 4.49851 41.9356 4.52317 41.4403ZM4.3806 43.6143L13.2555 49.8522C13.2555 49.8522 13.3981 51.7367 13.3981 51.9908C10.4105 49.7525 4.30877 45.0047 4.30877 45.0047L4.3806 43.6143Z" fill="white"/>
<path d="M71.1414 47.3212C70.9238 47.3351 70.6998 47.4037 70.5004 47.4284C60.7507 49.0492 50.9978 50.6551 41.2364 52.2759C39.6273 52.5182 34.112 53.4851 32.5029 53.6652C45.4953 53.0563 58.7611 52.2791 71.8543 51.384C71.9872 51.6263 72.0226 51.5094 71.9261 51.8117C71.9261 52.0411 71.6678 52.0958 71.4984 52.1333C64.3622 52.5085 57.2014 52.814 50.0759 53.3093C48.1646 53.4186 46.2843 53.6169 44.373 53.6652C43.1027 53.871 41.8056 53.6287 40.5235 53.7016C37.2454 53.871 33.9994 54.0189 30.7213 54.2001C28.4959 54.2601 26.3165 54.7768 24.1276 55.0909C21.007 55.6108 17.8618 56.1393 14.7531 56.6592C14.499 56.6957 14.2353 56.7911 13.9684 56.731C13.2673 56.2594 11.9852 55.3611 11.2595 54.913C8.45412 55.1434 5.91031 55.3803 2.88304 55.4125C2.55608 55.2914 2.85838 55.0727 2.91841 54.8058C5.51153 54.5806 8.08965 54.482 10.9743 54.3427C8.62778 52.4313 6.31123 50.491 3.95287 48.6044C3.7224 48.3867 3.13281 48.4789 3.13281 48.8541C2.79406 50.475 2.30631 52.0454 1.99222 53.6652C2.01687 54.6696 1.78854 55.6912 1.88502 56.6957C2.16374 57.8695 2.44031 59.0036 2.63326 60.1882C2.6815 60.5151 2.82836 60.9965 3.24001 60.9729C6.43344 60.8882 9.63437 60.7017 12.8278 60.5805C32.9446 60.3329 54.9009 58.4537 72.3892 58.4419C72.5211 58.0592 72.7322 57.3174 72.7815 56.909C72.7333 56.1715 72.8877 55.4725 72.9595 54.735C72.8984 53.2953 72.624 51.8374 72.7815 50.386C72.6122 49.9025 72.5725 49.3848 72.3174 48.9249C72.0633 48.4779 71.9175 47.9708 71.7117 47.4991C71.5488 47.3362 71.359 47.3073 71.1414 47.3212ZM74.0647 54.0575C73.8771 54.0757 73.7099 54.1433 73.637 54.3427C73.6263 55.4114 73.6531 56.3151 73.4944 57.3732C74.2201 57.2156 74.9427 57.1738 75.6684 57.0516C76.2001 56.9915 76.7286 56.849 77.2721 56.8736C77.3568 57.103 77.4254 57.3442 77.4865 57.5865C77.2206 57.7076 76.9569 57.7644 76.6664 57.8009C75.4068 57.9488 74.5117 58.1536 73.2446 58.2994L72.8877 59.1902L65.118 59.4399C65.118 59.4399 32.0323 63.8854 13.2909 66.426C13.0122 66.4861 12.6756 66.3832 12.5073 66.1409C12.4944 65.9351 12.5073 65.4988 12.5073 65.4998L61.1966 59.3327L14.3254 61.258C14.3254 61.258 12.4172 61.303 11.4728 61.436C10.7353 61.496 9.96561 61.4349 9.22809 61.5078C8.30833 61.6418 7.36713 61.5292 6.44737 61.6504C6.07218 61.6975 5.70556 61.6975 5.34216 61.6857C4.15548 61.6739 4.40525 61.719 3.55088 61.7308C5.66804 65.19 8.59669 70.119 10.6892 73.5912C10.9433 73.9781 11.1351 74.4284 11.4728 74.7671C12.265 75.1734 13.1708 75.1037 14.0391 74.9451C35.3641 71.921 56.6954 68.9152 78.0214 65.8911C78.3237 65.8547 78.5906 65.6585 78.6624 65.3573C78.8918 64.5222 79.0859 63.6968 79.3046 62.8617C79.401 62.5476 79.3882 62.2142 79.3399 61.8991C79.1588 60.8346 79.0826 59.7551 78.8758 58.6917C78.6464 57.8813 78.3097 57.0784 78.0568 56.2679C78.0085 56.0139 77.8113 55.866 77.5926 55.7684C76.5882 55.2485 75.5901 54.7093 74.5986 54.1647C74.4538 54.0736 74.2512 54.0393 74.0647 54.0575ZM8.3362 62.1842C8.61492 62.2207 9.01048 62.0845 9.19164 62.3632C9.9774 63.4395 10.626 64.6144 11.4728 65.6424C11.6175 66.0294 11.5082 66.455 11.5446 66.8538C10.4684 65.293 9.40068 63.745 8.3362 62.1842ZM7.44217 62.3461C8.78536 64.3539 10.0471 66.3907 11.4021 68.3867C11.6926 68.8101 11.64 69.329 11.6154 69.8124C11.1437 69.3043 10.8618 68.6697 10.4748 68.1015C9.5068 66.6018 8.56775 65.0979 7.58796 63.6099C7.34569 63.2112 7.08091 62.7706 6.87509 62.3472C7.06162 62.27 7.27709 62.3461 7.44217 62.3461ZM6.22118 62.3911C7.96315 65.1364 9.83805 68.4339 11.58 71.1674C11.6283 71.3368 11.6744 72.1268 11.6872 72.308C11.0462 71.4 10.5456 70.4235 9.94096 69.4919C8.92472 67.9193 7.96208 66.3231 6.94691 64.7505C6.64354 64.2435 5.88887 62.8521 5.65947 62.2957C6.14722 62.3461 5.96712 62.3482 6.22118 62.3911Z" fill="white"/>
</g>
</g>
</g>
</g>
</g>
<defs>
<clipPath id="clip0_211_2">
<rect width="240" height="75.12" fill="white"/>
</clipPath>
<clipPath id="clip1_211_2">
<rect width="239.609" height="75.0193" fill="white" transform="translate(0.195847 0.050293)"/>
</clipPath>
<clipPath id="clip2_211_2">
<rect width="239.609" height="75.0193" fill="white" transform="translate(0.195847 0.050293)"/>
</clipPath>
<clipPath id="clip3_211_2">
<rect width="142.555" height="50.0129" fill="white" transform="translate(97.2491 12.5535)"/>
</clipPath>
<clipPath id="clip4_211_2">
<rect width="142.555" height="50.0129" fill="white" transform="translate(97.2491 12.5535)"/>
</clipPath>
<clipPath id="clip5_211_2">
<rect width="142.555" height="50.0129" fill="white" transform="translate(97.2491 12.5535)"/>
</clipPath>
<clipPath id="clip6_211_2">
<rect width="142.555" height="50.0129" fill="white" transform="translate(97.2491 12.5535)"/>
</clipPath>
<clipPath id="clip7_211_2">
<rect width="2.87876" height="3.65059" fill="white" transform="translate(234.798 15.6355)"/>
</clipPath>
<clipPath id="clip8_211_2">
<rect width="84.0433" height="75.0193" fill="white" transform="translate(0.195847 0.050293)"/>
</clipPath>
<clipPath id="clip9_211_2">
<rect width="84.0433" height="75.0193" fill="white" transform="translate(0.195847 0.050293)"/>
</clipPath>
</defs>
</svg>
