<svg width="31" height="25" viewBox="0 0 31 25" fill="none" xmlns="http://www.w3.org/2000/svg">
<path d="M31 2.94118C29.859 3.45588 28.6291 3.79412 27.3547 3.95588C28.6587 3.17647 29.6664 1.94118 30.1405 0.455882C28.9106 1.19118 27.5473 1.70588 26.1099 2C24.9393 0.735294 23.2945 0 21.4273 0C17.945 0 15.0999 2.82353 15.0999 6.30882C15.0999 6.80882 15.1592 7.29412 15.2629 7.75C9.98757 7.48529 5.29015 4.97059 2.16348 1.16176C1.6152 2.08824 1.30402 3.17647 1.30402 4.32353C1.30402 6.51471 2.41539 8.45588 4.13432 9.55882C3.08222 9.55882 2.10421 9.26471 1.24474 8.82353V8.86765C1.24474 11.9265 3.43786 14.4853 6.34226 15.0588C5.40978 15.3121 4.43083 15.3473 3.48231 15.1618C3.88479 16.4154 4.67302 17.5124 5.73621 18.2984C6.7994 19.0845 8.08408 19.5201 9.40966 19.5441C7.16265 21.3095 4.37734 22.2637 1.51147 22.25C1.00765 22.25 0.503824 22.2206 0 22.1618C2.81549 23.9559 6.16444 25 9.75048 25C21.4273 25 27.8437 15.3824 27.8437 7.04412C27.8437 6.76471 27.8437 6.5 27.8289 6.22059C29.0736 5.33823 30.1405 4.22059 31 2.94118Z" fill="#F2FEDC"/>
</svg>
